# xmcd
#
# Track frame offsets: 
#        150
#        20968
#        47392
#        70551
#        91232
#        114883
#        128211
#        147305
#        170448
#        189770
#
# Disc length: 2754 seconds
#
# Revision: 0
# Processed by: cddbd v1.5.2PL0 Copyright (c) Steve Scherf et al.
# Submitted via: ExactAudioCopy v0.95b4
#
DISCID=7b0ac00a
DTITLE=Ossler - Ett Brus
DYEAR=2008
DGENRE=Rock
TTITLE0=Svinbesättningen
TTITLE1=Ner i säcken
TTITLE2=Ett slutet rum
TTITLE3=Borra hål
TTITLE4=Svartare än blå
TTITLE5=Elvis på institutionen
TTITLE6=Ett brus
TTITLE7=Lergraven
TTITLE8=Hela mitt liv
TTITLE9=En förlorad vals
EXTD=
EXTT0=
EXTT1=
EXTT2=
EXTT3=
EXTT4=
EXTT5=
EXTT6=
EXTT7=
EXTT8=
EXTT9=
PLAYORDER=
